<svg width="11" height="14" viewBox="0 0 11 14" fill="none" xmlns="http://www.w3.org/2000/svg">
<path d="M2.52307 2.59735C1.80358 2.59735 1.59646 3.10916 1.58283 3.36507V12.1171C1.58283 12.7313 2.20966 12.9616 2.52307 13H9.06384C9.40451 12.9744 10.0858 12.762 10.0858 12.1171V3.36507C10.0586 3.10916 9.81603 2.59735 9.06384 2.59735" stroke="#B3B3B3" stroke-width="1.33367"/>
<path d="M8.03408 1H3.64125C3.50892 1 3.40164 1.10728 3.40164 1.23961V3.95518C3.40164 4.08751 3.50892 4.19478 3.64125 4.19478H8.03408C8.16641 4.19478 8.27369 4.08751 8.27369 3.95518V2.59739V1.23961C8.27369 1.10728 8.16641 1 8.03408 1Z" stroke="#B3B3B3" stroke-width="1.22154"/>
</svg>
